HIERARCHY
ROOT Hips
{
	OFFSET	0.00	0.00	0.00
	CHANNELS 6 Xposition Yposition Zposition Zrotation Xrotation Yrotation
	JOINT LeftUpLeg
	{
		OFFSET	 0.126116	-0.014019	-0.065224
		CHANNELS 3 Zrotation Xrotation Yrotation
		JOINT LeftLeg
		{
			OFFSET	 0.000000	 0.000000	 0.569914
			CHANNELS 3 Zrotation Xrotation Yrotation
			JOINT LeftFoot
			{
				OFFSET	 0.000000	 0.000000	 0.544423
				CHANNELS 3 Zrotation Xrotation Yrotation
				JOINT LeftToeBase
				{
					OFFSET	 0.000000	 0.000000	 0.207117
					CHANNELS 3 Zrotation Xrotation Yrotation
					End Site
					{
						OFFSET	 0.000000	 0.000000	 0.207117
					}
				}
			}
		}
	}
	JOINT RightUpLeg
	{
		OFFSET	-0.124023	-0.008373	-0.065224
		CHANNELS 3 Zrotation Xrotation Yrotation
		JOINT RightLeg
		{
			OFFSET	 0.000000	 0.000000	 0.570047
			CHANNELS 3 Zrotation Xrotation Yrotation
			JOINT RightFoot
			{
				OFFSET	 0.000000	 0.000000	 0.544354
				CHANNELS 3 Zrotation Xrotation Yrotation
				JOINT RightToeBase
				{
					OFFSET	 0.000000	 0.000000	 0.207540
					CHANNELS 3 Zrotation Xrotation Yrotation
					End Site
					{
						OFFSET	 0.000000	 0.000000	 0.207540
					}
				}
			}
		}
	}
	JOINT Spine
	{
		OFFSET	 0.000184	-0.007763	 0.117403
		CHANNELS 3 Zrotation Xrotation Yrotation
		JOINT Spine1
		{
			OFFSET	 0.000000	 0.000000	 0.137269
			CHANNELS 3 Zrotation Xrotation Yrotation
			JOINT Spine2
			{
				OFFSET	 0.000000	 0.000000	 0.156879
				CHANNELS 3 Zrotation Xrotation Yrotation
				JOINT LeftShoulder
				{
					OFFSET	 0.080501	-0.002496	 0.160144
					CHANNELS 3 Zrotation Xrotation Yrotation
					JOINT LeftArm
					{
						OFFSET	 0.000000	 0.000000	 0.164363
						CHANNELS 3 Zrotation Xrotation Yrotation
						JOINT LeftForeArm
						{
							OFFSET	 0.000000	 0.000000	 0.364576
							CHANNELS 3 Zrotation Xrotation Yrotation
							JOINT LeftHand
							{
								OFFSET	 0.000000	 0.000000	 0.360812
								CHANNELS 3 Zrotation Xrotation Yrotation
								JOINT LeftHandIndex1
								{
									OFFSET	 0.000000	 0.000000	 0.086006
									CHANNELS 3 Zrotation Xrotation Yrotation
									JOINT LeftHandIndex2
									{
										OFFSET	 0.000000	 0.000000	 0.047237
										CHANNELS 3 Zrotation Xrotation Yrotation
										JOINT LeftHandIndex3
										{
											OFFSET	-0.004284	-0.000551	 0.038165
											CHANNELS 3 Zrotation Xrotation Yrotation
											End Site
											{
												OFFSET	-0.004284	-0.000551	 0.038165
											}
										}
									}
								}
							}
						}
					}
				}
				JOINT Neck
				{
					OFFSET	 0.000000	 0.000000	 0.176489
					CHANNELS 3 Zrotation Xrotation Yrotation
					JOINT Head
					{
						OFFSET	 0.000000	-0.001747	 0.077940
						CHANNELS 3 Zrotation Xrotation Yrotation
						End Site
						{
							OFFSET	 0.000000	-0.001747	 0.077940
						}
					}
				}
				JOINT RightShoulder
				{
					OFFSET	-0.080363	 0.000306	 0.159706
					CHANNELS 3 Zrotation Xrotation Yrotation
					JOINT RightArm
					{
						OFFSET	 0.000000	 0.000000	 0.164196
						CHANNELS 3 Zrotation Xrotation Yrotation
						JOINT RightForeArm
						{
							OFFSET	 0.000000	 0.000000	 0.365611
							CHANNELS 3 Zrotation Xrotation Yrotation
							JOINT RightHand
							{
								OFFSET	 0.000000	 0.000000	 0.360648
								CHANNELS 3 Zrotation Xrotation Yrotation
								JOINT RightHandIndex1
								{
									OFFSET	 0.000000	 0.000000	 0.069977
									CHANNELS 3 Zrotation Xrotation Yrotation
									JOINT RightHandIndex2
									{
										OFFSET	 0.000000	 0.000000	 0.052305
										CHANNELS 3 Zrotation Xrotation Yrotation
										JOINT RightHandIndex3
										{
											OFFSET	 0.009002	-0.000782	 0.042196
											CHANNELS 3 Zrotation Xrotation Yrotation
											End Site
											{
												OFFSET	 0.009002	-0.000782	 0.042196
											}
										}
									}
								}
							}
						}
					}
				}
			}
		}
	}
}
MOTION
Frames:    7
Frame Time: 0.03333334
-0.442117	-0.033290	 1.272598	-179.523500	-3.800351	 1.102327	 21.701500	 0.264959	 174.343000	-7.378842	-12.512700	-1.730881	-2.969350	 70.980220	-6.003791	-2.385833	 28.452760	 0.000004	 15.034070	 1.322344	 178.198200	 2.380384	-12.859750	 0.190921	 12.277620	 69.546880	 3.053827	 2.384659	 28.388700	-0.000001	 2.453170	 9.201361	-4.343171	 2.020105	-0.177915	 9.097365	-5.243981	-0.173921	-8.265127	-91.776090	 78.527360	 179.999900	-31.106200	-2.598772	-8.323970	 1.300626	-0.565075	-9.806644	 0.069591	-7.876381	-1.749103	-4.130319	 21.525730	 0.991547	-5.167930	 0.731704	 3.519349	-1.378229	 35.397820	-2.634230	-2.711199	 0.535764	 1.590216	-15.764230	-26.296790	-14.200100	 89.782150	 78.203870	 180.000000	 44.255730	-0.423219	-4.401813	-12.105650	-9.851161	 58.266950	 20.685550	 68.814220	 48.078820	 5.716227	 19.173190	-3.685159	 5.027444	 0.246877	-9.377972	-2.350882	 35.473990	 5.254307
-0.442340	-0.033664	 1.271492	-179.273100	-4.319377	 1.585171	 24.908220	-1.885297	 173.273400	-9.253674	-17.092010	-2.910771	-0.936305	 73.034190	-6.494093	-2.385833	 28.452760	 0.000004	 14.510110	 0.465814	 178.044900	 3.357785	-15.665530	 0.495678	 8.136310	 70.231000	 6.599988	 2.384659	 28.388700	-0.000001	 1.970119	 9.880309	-4.587972	 1.921741	 0.472048	 7.992823	-5.800636	-1.448175	-7.541614	-91.776150	 78.527380	 180.000000	-39.640870	 2.505404	 7.731901	-0.475547	-1.532126	-45.564090	-0.499223	-6.718231	-2.050038	-4.130319	 21.525730	 0.991547	-5.167930	 0.731704	 3.519349	-1.378229	 35.397820	-2.634230	-3.129257	 1.175848	 2.089647	-16.885660	-28.371240	-16.657950	 89.782180	 78.203900	 179.999900	 52.340690	 5.406554	-8.688412	-10.154170	-11.034050	 69.599220	 34.983510	 72.550480	 38.550490	 5.716227	 19.173190	-3.685159	 5.027444	 0.246877	-9.377972	-2.350882	 35.473990	 5.254307
-0.443164	-0.035580	 1.266505	-178.670800	-4.505066	 1.459140	 22.638850	-6.509919	 173.512100	-10.197720	-29.491260	-5.344222	-12.391830	 80.616910	 5.215426	-2.385833	 28.452760	 0.000004	 13.378140	-4.343634	-179.663000	 3.779622	-26.933180	 1.022709	 17.835630	 75.795890	-4.104342	 2.384659	 28.388700	-0.000001	-0.819131	 10.519640	-4.015791	 0.721757	 0.727580	 6.793249	-5.740972	-1.541107	-6.903078	-91.776180	 78.527420	 180.000000	-37.369110	 22.813670	 22.408610	-2.230783	-1.305234	-101.394500	-0.314279	-6.946569	-2.067813	-4.130319	 21.525730	 0.991547	-5.167930	 0.731704	 3.519349	-1.378229	 35.397820	-2.634230	-3.121578	 1.076713	 2.323058	-16.867080	-27.947320	-17.390730	 89.782070	 78.203890	-180.000000	 50.739390	 21.832320	-13.597900	-3.394182	-9.680611	 105.842000	 61.228080	 48.140450	-10.201750	 5.716227	 19.173190	-3.685159	 5.027444	 0.246877	-9.377972	-2.350882	 35.473990	 5.254307
-0.444834	-0.037996	 1.260621	-178.050600	-4.774674	 1.176853	 21.022590	-9.441430	 173.879900	-11.841210	-39.141510	-7.903137	-49.015920	 85.693610	 42.245450	-2.385833	 28.452760	 0.000004	 12.866260	-7.677506	-176.751600	 4.326920	-35.512120	 1.629788	 34.524230	 79.021970	-22.039710	 2.384659	 28.388700	-0.000001	-3.808220	 11.316340	-3.209832	-0.616021	 1.306431	 5.539021	-5.836325	-2.091595	-6.260673	-91.776160	 78.527380	 180.000000	-1.881284	 54.015050	-21.724950	-2.048401	-0.310029	-106.731300	-0.300602	-6.842768	-2.076117	-4.130319	 21.525730	 0.991547	-5.167930	 0.731704	 3.519349	-1.378229	 35.397820	-2.634230	-3.052049	 0.644850	 1.889728	-16.696380	-27.413540	-16.608830	 89.782170	 78.203890	 179.999900	 22.541980	 54.216150	 15.553010	-2.299947	-6.431368	 121.124700	 37.233830	 22.212620	-31.338200	 5.716227	 19.173190	-3.685159	 5.027444	 0.246877	-9.377972	-2.350882	 35.473990	 5.254307
-0.449689	-0.041062	 1.254847	-176.839000	-5.272185	 0.881792	 17.927280	-10.763090	 174.728500	-13.264510	-46.246450	-10.079950	-123.033300	 84.506350	 116.372700	-2.385833	 28.452760	 0.000004	 11.424920	-9.679683	-173.499100	 5.113328	-41.671000	 2.389000	 51.332960	 79.766220	-40.251580	 2.384659	 28.388700	-0.000001	-7.673586	 11.688000	-2.736425	-1.687351	 3.203286	 5.448696	-6.295412	-3.395175	-6.229495	-91.776210	 78.527420	-180.000000	 41.049020	 50.906750	-92.513740	-2.665446	 1.261292	-59.752560	-0.334848	-6.649017	-2.086544	-4.130319	 21.525730	 0.991547	-5.167930	 0.731704	 3.519349	-1.378229	 35.397820	-2.634230	-3.054202	-0.428185	 0.085831	-16.162640	-26.033600	-12.288050	 89.782000	 78.203870	-179.999900	-55.191220	 49.458720	 98.225970	-5.293756	-6.180313	 98.611020	-4.797153	 8.363497	-27.887870	 5.716227	 19.173190	-3.685159	 5.027444	 0.246877	-9.377972	-2.350882	 35.473990	 5.254307
-0.456533	-0.043118	 1.254074	-176.219700	-5.462784	 0.589530	 16.026800	-10.332770	 175.697600	-13.038460	-46.500180	-9.953247	-125.632500	 84.012640	 118.870400	-2.385833	 28.452760	 0.000004	 9.726278	-9.832844	-172.334900	 5.454581	-42.147680	 2.640771	 47.540950	 78.876490	-36.894830	 2.384659	 28.388700	-0.000001	-9.600642	 11.690130	-2.737291	-1.603653	 3.591989	 6.847788	-6.507985	-3.424300	-6.934656	-91.776250	 78.527380	-179.999900	 48.359580	 47.352610	-94.764680	-3.061033	 2.894022	-68.425520	-0.436329	-6.212933	-2.107590	-4.130319	 21.525730	 0.991547	-5.167930	 0.731704	 3.519349	-1.378229	 35.397820	-2.634230	-3.790298	 1.676164	 1.921312	-17.273090	-27.719950	-16.687530	 89.782110	 78.203900	 180.000000	-72.211980	 37.460920	 119.825200	-7.437309	-4.296478	 75.070680	-19.468000	-5.644291	-20.035970	 5.716227	 19.173190	-3.685159	 5.027444	 0.246877	-9.377972	-2.350882	 35.473990	 5.254307
-0.466185	-0.044685	 1.254819	-175.133900	-5.488750	 1.112410	 13.836460	-9.583306	 176.075700	-12.087930	-44.570880	-8.950769	-114.888400	 84.668540	 107.881700	-2.385833	 28.452760	 0.000004	 7.409417	-10.291910	-172.363400	 6.053317	-42.017760	 3.036140	 37.901740	 77.373660	-27.674280	 2.384659	 28.388700	-0.000001	-11.695480	 11.179690	-3.494940	-0.723561	 3.845960	 8.504394	-6.557250	-3.086493	-7.659196	-91.776240	 78.527350	-180.000000	 48.119870	 47.689390	-79.130830	-1.443616	 5.304665	-94.895990	-0.436171	-5.981493	-2.115065	-4.130319	 21.525730	 0.991547	-5.167930	 0.731704	 3.519349	-1.378229	 35.397820	-2.634230	-4.102772	 2.354700	 2.532001	-17.514190	-27.707840	-17.768460	 89.782090	 78.203850	-180.000000	-76.554600	 34.293250	 116.096300	-7.356845	-1.788983	 62.168080	-21.260900	-20.457490	-6.309451	 5.716227	 19.173190	-3.685159	 5.027444	 0.246877	-9.377972	-2.350882	 35.473990	 5.254307
